<svg xmlns="http://www.w3.org/2000/svg" xmlns:xlink="http://www.w3.org/1999/xlink" version="1.1" width="1000" height="1000" viewBox="0 0 1000 1000" xml:space="preserve">
<desc>Created with Fabric.js 3.5.0</desc>
<defs>
</defs>
<rect x="0" y="0" width="100%" height="100%" fill="#ffffff"/>
<g transform="matrix(2.2499 0 0 2.2499 501.8276 526.5677)" id="878832">
<g style="">
		<g transform="matrix(1.8182 0 0 1.8182 0.0022 0.0024)" id="44672">
<path style="stroke: none; stroke-width: 1; stroke-dasharray: none; stroke-linecap: butt; stroke-dashoffset: 0; stroke-linejoin: miter; stroke-miterlimit: 4; is-custom-font: none; font-file-url: none; fill: rgb(65,145,99); fill-rule: nonzero; opacity: 1;" transform=" translate(-123, -131.5)" d="M 0 0 C 81.18 0 162.36 0 246 0 C 246 86.79 246 173.58 246 263 C 164.82 263 83.64 263 0 263 C 0 176.21 0 89.42 0 0 Z" stroke-linecap="round"/>
</g>
		<g transform="matrix(1.8182 0 0 1.8182 0.0022 0.0024)" id="498087">
<path style="stroke: none; stroke-width: 1; stroke-dasharray: none; stroke-linecap: butt; stroke-dashoffset: 0; stroke-linejoin: miter; stroke-miterlimit: 4; is-custom-font: none; font-file-url: none; fill: rgb(254,254,254); fill-rule: nonzero; opacity: 1;" transform=" translate(-123, -131.5)" d="M 0 0 C 81.18 0 162.36 0 246 0 C 246 86.79 246 173.58 246 263 C 164.82 263 83.64 263 0 263 C 0 176.21 0 89.42 0 0 Z M 24 14 C 24 78.35 24 142.7 24 209 C 88.35 209 152.7 209 219 209 C 219 144.65 219 80.3 219 14 C 154.65 14 90.3 14 24 14 Z" stroke-linecap="round"/>
</g>
		<g transform="matrix(1.8182 0 0 1.8182 -3.3212 -18.2986)" id="697034">
<path style="stroke: none; stroke-width: 1; stroke-dasharray: none; stroke-linecap: butt; stroke-dashoffset: 0; stroke-linejoin: miter; stroke-miterlimit: 4; is-custom-font: none; font-file-url: none; fill: rgb(247,251,249); fill-rule: nonzero; opacity: 1;" transform=" translate(2.765, -69.685)" d="M 0 0 C 2.0625 2.25 2.0625 2.25 3.25 5.3125 C 2.90393392 12.57988763 -1.55920423 18.61887863 -5.9375 24.25 C -7.2575 23.92 -8.5775 23.59 -9.9375 23.25 C -11.0625 18.5 -11.0625 18.5 -9.9375 16.25 C -9.84165021 14.3978437 -9.80766394 12.54212847 -9.8125 10.6875 C -9.80992188 9.69621094 -9.80734375 8.70492187 -9.8046875 7.68359375 C -9.66311569 5.30187652 -9.66311569 5.30187652 -10.9375 4.25 C -16.40752084 3.88533194 -19.43241785 3.81789483 -23.9375 7.25 C -25.40967449 9.3926993 -26.61598479 11.39981208 -27.8125 13.6875 C -28.36562866 14.70577881 -28.36562866 14.70577881 -28.92993164 15.74462891 C -30.27964783 18.23919124 -31.60811879 20.74454275 -32.9375 23.25 C -34.12541855 25.46792136 -35.31428442 27.68533551 -36.50390625 29.90234375 C -38.44939319 33.5299804 -40.39344231 37.15836955 -42.33276367 40.78930664 C -46.05548208 47.75742985 -49.79866244 54.71304857 -53.625 61.625 C -54.01034912 62.3247998 -54.39569824 63.02459961 -54.79272461 63.74560547 C -55.15374268 64.39416504 -55.51476074 65.04272461 -55.88671875 65.7109375 C -56.18924561 66.25540527 -56.49177246 66.79987305 -56.8034668 67.36083984 C -58.42027485 70.05424366 -60.18278597 72.64504955 -61.9375 75.25 C -55.42287679 75.13257547 -48.90842619 75.00774114 -42.39404297 74.87768555 C -40.17662803 74.83429922 -37.95917888 74.79262692 -35.74169922 74.75268555 C -32.55946528 74.69507246 -29.37740416 74.63135236 -26.1953125 74.56640625 C -25.19944122 74.54969376 -24.20356995 74.53298126 -23.17752075 74.51576233 C -22.25671722 74.49581711 -21.3359137 74.47587189 -20.38720703 74.45532227 C -19.5744632 74.43977798 -18.76171936 74.4242337 -17.92434692 74.40821838 C -15.86311733 74.36897586 -15.86311733 74.36897586 -13.9375 73.25 C -13.9375 71.6 -13.9375 69.95 -13.9375 68.25 C -15.9175 67.26 -15.9175 67.26 -17.9375 66.25 C -17.4425 64.27 -17.4425 64.27 -16.9375 62.25 C -14.6875 61.5 -14.6875 61.5 -11.9375 61.25 C -9.625 63.1875 -9.625 63.1875 -7.9375 65.25 C -7.545625 64.1775 -7.15375 63.105 -6.75 62 C -4.55043325 56.94914303 -1.47525665 54.96153862 3.48681641 52.66552734 C 8.94541165 50.67964018 14.33714575 50.81943563 20.0859375 50.8515625 C 21.7979686 50.84725723 21.7979686 50.84725723 23.54458618 50.84286499 C 25.94997659 50.84083082 28.35538378 50.84631516 30.76074219 50.85888672 C 34.41900122 50.87491893 38.07615049 50.85903024 41.734375 50.83984375 C 44.08073158 50.84182687 46.42708748 50.84567198 48.7734375 50.8515625 C 49.85603851 50.84548981 50.93863953 50.83941711 52.05404663 50.8331604 C 61.00930415 50.91501961 70.11333825 52.12811941 77.0625 58.25 C 80.88261733 63.28777973 81.71644017 68.35865149 81.43359375 74.58984375 C 80.84235844 78.82806737 79.51391886 81.76428386 77.0625 85.25 C 76.49917969 86.05308594 75.93585938 86.85617188 75.35546875 87.68359375 C 67.53548624 97.50716643 55.54387322 103.62837675 43.09375 105.08203125 C 27.45925174 105.94837587 27.45925174 105.94837587 24.0625 104.25 C 22.26751814 107.81083895 20.47710216 111.37395469 18.6875 114.9375 C 17.92566406 116.44860352 17.92566406 116.44860352 17.1484375 117.99023438 C 16.65859375 118.96669922 16.16875 119.94316406 15.6640625 120.94921875 C 14.98851318 122.29246216 14.98851318 122.29246216 14.29931641 123.6628418 C 11.9396178 128.59883194 10.7945053 132.81224634 10.0625 138.25 C 9.7325 138.58 9.4025 138.91 9.0625 139.25 C 7.928125 139.1675 6.79375 139.085 5.625 139 C 0.78363498 138.8956977 -2.43276856 140.86493047 -6.6015625 143.12890625 C -9.5415786 144.53991732 -11.72717774 144.81180639 -14.9375 144.25 C -15.5975 143.59 -16.2575 142.93 -16.9375 142.25 C -16.9375 140.3125 -16.9375 140.3125 -15.9375 138.25 C -13.94642752 137.23234073 -11.94531177 136.23422146 -9.9375 135.25 C -5.63211147 130.67610337 -2.83604418 125.0195653 0.1875 119.5625 C 0.78498047 118.4904834 1.38246094 117.4184668 1.99804688 116.31396484 C 9.22157992 103.27515634 16.14461307 90.07562346 23.08273315 76.88352966 C 26.02013524 71.30835576 29.0209283 65.76907543 32.0625 60.25 C 23.99777261 59.59165491 13.02343593 61.01502338 6.6328125 66.234375 C 4.86673331 68.16122662 4.86673331 68.16122662 4.6875 70.75 C 5.07040736 73.3027157 5.75311548 75.04041362 7.0625 77.25 C 6.4025 78.24 5.7425 79.23 5.0625 80.25 C 0.1875 79.375 0.1875 79.375 -0.9375 78.25 C -1.35 79.19875 -1.7625 80.1475 -2.1875 81.125 C -4.07432934 84.4943381 -4.43584873 85.04309225 -7.9375 86.25 C -10.56619596 86.43055726 -13.08446984 86.50657572 -15.7109375 86.48046875 C -16.4711319 86.48001053 -17.23132629 86.47955231 -18.01455688 86.4790802 C -19.62674516 86.47606158 -21.23893062 86.46818692 -22.85107422 86.45581055 C -25.26931609 86.43782125 -27.68716764 86.43529935 -30.10546875 86.43554688 C -38.37605476 86.41623774 -46.55762048 86.14221528 -54.80615234 85.47924805 C -59.39391247 85.14337507 -63.96407444 85.06612081 -68.5625 85.0625 C -69.41972656 85.05025391 -70.27695313 85.03800781 -71.16015625 85.02539062 C -71.98644531 85.02345703 -72.81273437 85.02152344 -73.6640625 85.01953125 C -74.75581787 85.01336792 -74.75581787 85.01336792 -75.86962891 85.00708008 C -78.24441336 85.28605417 -79.81885766 86.17981678 -81.9375 87.25 C -84.6875 86.875 -84.6875 86.875 -86.9375 86.25 C -87.13836443 82.53400809 -87.0894437 81.47791555 -84.9375 78.25 C -82.44140625 77.1171875 -82.44140625 77.1171875 -79.5 76.125 C -78.04787109 75.62613281 -78.04787109 75.62613281 -76.56640625 75.1171875 C -75.69886719 74.83101563 -74.83132812 74.54484375 -73.9375 74.25 C -70.88720889 73.59883895 -70.88720889 73.59883895 -69.92236328 71.52050781 C -69.5973584 70.77124023 -69.27235352 70.02197266 -68.9375 69.25 C -68.50808105 68.4259668 -68.07866211 67.60193359 -67.63623047 66.75292969 C -63.89490834 59.48099349 -60.76070559 52.05576745 -57.81356812 44.43563843 C -42.04852015 3.80625735 -42.04852015 3.80625735 -25.9375 -3.75 C -16.81437852 -6.71275628 -7.98810953 -4.75887376 0 0 Z" stroke-linecap="round"/>
</g>
		<g transform="matrix(1.8182 0 0 1.8182 88.5247 -3.8762)" id="222374">
<path style="stroke: none; stroke-width: 1; stroke-dasharray: none; stroke-linecap: butt; stroke-dashoffset: 0; stroke-linejoin: miter; stroke-miterlimit: 4; is-custom-font: none; font-file-url: none; fill: rgb(66,146,100); fill-rule: nonzero; opacity: 1;" transform=" translate(12.3116, -18.3679)" d="M 0 0 C 3.93453806 1.63939086 5.3975942 3.12925352 7 7 C 8.26952589 14.61715535 6.2631311 20.6896661 2 27 C -2.37109452 32.03599341 -8.7712023 35.24028289 -15.1875 36.75 C -20.79304334 37.11757661 -26.38482576 37.07599484 -32 37 C -27.73935123 27.64268864 -23.44447479 18.34748302 -18.1875 9.5 C -17.8272876 8.88439209 -17.4670752 8.26878418 -17.09594727 7.63452148 C -12.52733557 0.13598168 -8.45766024 -1.01437092 0 0 Z" stroke-linecap="round"/>
</g>
		<g transform="matrix(1.8182 0 0 1.8182 181.8184 187.2729)" id="389763">
<path style="stroke: none; stroke-width: 1; stroke-dasharray: none; stroke-linecap: butt; stroke-dashoffset: 0; stroke-linejoin: miter; stroke-miterlimit: 4; is-custom-font: none; font-file-url: none; fill: rgb(241,248,245); fill-rule: nonzero; opacity: 1;" transform=" translate(11, -9.5)" d="M 0 0 C 0.33 6.27 0.66 12.54 1 19 C -6.92 19 -14.84 19 -23 19 C -22.10465713 14.52328567 -20.99789901 11.67678319 -18.9375 7.6875 C -18.38964844 6.61886719 -17.84179688 5.55023438 -17.27734375 4.44921875 C -16.64505859 3.23685547 -16.64505859 3.23685547 -16 2 C -19.65316671 3.24976756 -20.78065836 3.67098753 -23 7 C -22.67 5.02 -22.34 3.04 -22 1 C -18.70837401 0.83252349 -15.41669287 0.66615639 -12.125 0.5 C -11.18785156 0.45230469 -10.25070313 0.40460938 -9.28515625 0.35546875 C -8.38925781 0.31035156 -7.49335938 0.26523438 -6.5703125 0.21875 C -5.74289551 0.17685547 -4.91547852 0.13496094 -4.06298828 0.09179688 C -2.70965236 0.03157743 -1.35467505 0 0 0 Z" stroke-linecap="round"/>
</g>
		<g transform="matrix(1.8182 0 0 1.8182 -123.6361 180.0003)" id="507326">
<path style="stroke: none; stroke-width: 1; stroke-dasharray: none; stroke-linecap: butt; stroke-dashoffset: 0; stroke-linejoin: miter; stroke-miterlimit: 4; is-custom-font: none; font-file-url: none; fill: rgb(70,149,105); fill-rule: nonzero; opacity: 1;" transform=" translate(2, -13.5)" d="M 0 0 C 0.495 7.92 0.495 7.92 1 16 C 2.32 15.34 3.64 14.68 5 14 C 6.17232685 15.6209213 7.3377077 17.24686833 8.5 18.875 C 9.1496875 19.77992188 9.799375 20.68484375 10.46875 21.6171875 C 12 24 12 24 12 26 C 12.66 26.33 13.32 26.66 14 27 C 11.36 27 8.72 27 6 27 C 5.73445313 26.43410156 5.46890625 25.86820313 5.1953125 25.28515625 C 4.66550781 24.18494141 4.66550781 24.18494141 4.125 23.0625 C 3.77695312 22.33160156 3.42890625 21.60070312 3.0703125 20.84765625 C 2.1315023 18.83667541 2.1315023 18.83667541 0 18 C 0.48484276 22.64586892 0.48484276 22.64586892 2 27 C -3.61 27 -9.22 27 -15 27 C -15.375 19.125 -15.375 19.125 -15.47802734 16.64892578 C -15.58495779 12.36288412 -15.58495779 12.36288412 -18 9 C -15.36 8.67 -12.72 8.34 -10 8 C -10 13.94 -10 19.88 -10 26 C -8.35 26 -6.7 26 -5 26 C -5.13844847 22.20802551 -5.28700744 18.4165141 -5.4375 14.625 C -5.47681641 13.54476562 -5.51613281 12.46453125 -5.55664062 11.3515625 C -5.59853516 10.3203125 -5.64042969 9.2890625 -5.68359375 8.2265625 C -5.72025146 7.27346191 -5.75690918 6.32036133 -5.79467773 5.33837891 C -5.85763465 2.97867651 -5.85763465 2.97867651 -7 1 C -1.125 0 -1.125 0 0 0 Z" stroke-linecap="round"/>
</g>
		<g transform="matrix(1.8182 0 0 1.8182 42.7275 187.2729)" id="938605">
<path style="stroke: none; stroke-width: 1; stroke-dasharray: none; stroke-linecap: butt; stroke-dashoffset: 0; stroke-linejoin: miter; stroke-miterlimit: 4; is-custom-font: none; font-file-url: none; fill: rgb(237,246,242); fill-rule: nonzero; opacity: 1;" transform=" translate(-2.5, -9.5)" d="M 0 0 C 0.33 0.99 0.66 1.98 1 3 C 1.66 2.34 2.32 1.68 3 1 C 8.13358883 0.45387353 8.13358883 0.45387353 10.6484375 2.0390625 C 12.70668367 5.02530406 12.57190144 8.17801743 12.6875 11.6875 C 12.790625 14.100625 12.89375 16.51375 13 19 C 6.07 19 -0.86 19 -8 19 C -7.34 18.34 -6.68 17.68 -6 17 C -5.69400937 14.43083343 -5.48912913 11.95241616 -5.375 9.375 C -5.33632812 8.66859375 -5.29765625 7.9621875 -5.2578125 7.234375 C -5.16352276 5.49001476 -5.08067109 3.74504309 -5 2 C -5.99 1.67 -6.98 1.34 -8 1 C -2.25 0 -2.25 0 0 0 Z" stroke-linecap="round"/>
</g>
		<g transform="matrix(1.8182 0 0 1.8182 -30.9089 180.643)" id="730589">
<path style="stroke: none; stroke-width: 1; stroke-dasharray: none; stroke-linecap: butt; stroke-dashoffset: 0; stroke-linejoin: miter; stroke-miterlimit: 4; is-custom-font: none; font-file-url: none; fill: rgb(99,169,133); fill-rule: nonzero; opacity: 1;" transform=" translate(-10, -12.8535)" d="M 0 0 C 2.22855574 -0.0814222 4.45797655 -0.13938079 6.6875 -0.1875 C 8.54955078 -0.23970703 8.54955078 -0.23970703 10.44921875 -0.29296875 C 14.49607131 0.04092998 17.11242948 1.11242948 20 4 C 19.875 7.375 19.875 7.375 19 11 C 15.14824522 14.41155423 13.44297798 14 8 14 C 8.33 17.96 8.66 21.92 9 26 C 6.03 26 3.06 26 0 26 C 0.66 25.67 1.32 25.34 2 25 C 1.86155153 21.20802551 1.71299256 17.4165141 1.5625 13.625 C 1.52318359 12.54476562 1.48386719 11.46453125 1.44335938 10.3515625 C 1.40146484 9.3203125 1.35957031 8.2890625 1.31640625 7.2265625 C 1.27974854 6.27346191 1.24309082 5.32036133 1.20532227 4.33837891 C 1.14236535 1.97867651 1.14236535 1.97867651 0 0 Z" stroke-linecap="round"/>
</g>
		<g transform="matrix(1.8182 0 0 1.8182 5.3979 188.0247)" id="947503">
<path style="stroke: none; stroke-width: 1; stroke-dasharray: none; stroke-linecap: butt; stroke-dashoffset: 0; stroke-linejoin: miter; stroke-miterlimit: 4; is-custom-font: none; font-file-url: none; fill: rgb(96,167,130); fill-rule: nonzero; opacity: 1;" transform=" translate(4.0313, -8.9135)" d="M 0 0 C 1.6796875 1.140625 1.6796875 1.140625 3 3 C 3.51171875 5.8125 3.51171875 5.8125 3.6875 9 C 3.78611328 10.5778125 3.78611328 10.5778125 3.88671875 12.1875 C 3.96470853 14.12379794 4 16.06213207 4 18 C 2.989375 17.814375 1.97875 17.62875 0.9375 17.4375 C -2.98514992 16.83269405 -2.98514992 16.83269405 -6.8125 17.5625 C -8.3903125 17.7790625 -8.3903125 17.7790625 -10 18 C -12 16 -12 16 -12.0625 13.625 C -10.42865667 9.58844589 -7.88662074 8.84103088 -4 7 C -3.34 7 -2.68 7 -2 7 C -2 5.02 -2 3.04 -2 1 C -3.32 1 -4.64 1 -6 1 C -6.33 2.65 -6.66 4.3 -7 6 C -8.32 5.67 -9.64 5.34 -11 5 C -8.5075559 -0.51898335 -5.93599766 -0.41656124 0 0 Z" stroke-linecap="round"/>
</g>
		<g transform="matrix(1.8182 0 0 1.8182 -81.4203 188.2451)" id="661519">
<path style="stroke: none; stroke-width: 1; stroke-dasharray: none; stroke-linecap: butt; stroke-dashoffset: 0; stroke-linejoin: miter; stroke-miterlimit: 4; is-custom-font: none; font-file-url: none; fill: rgb(85,159,119); fill-rule: nonzero; opacity: 1;" transform=" translate(3.7813, -9.0347)" d="M 0 0 C 2.875 1.8125 2.875 1.8125 5 4 C 5 4.99 5 5.98 5 7 C 1.04 7 -2.92 7 -7 7 C -6.34 8.98 -5.68 10.96 -5 13 C -0.76353233 14.0089034 -0.76353233 14.0089034 3.375 13.0625 C 3.91125 12.711875 4.4475 12.36125 5 12 C 4.05275873 14.36810318 3.34708866 15.75207953 1.25 17.25 C -1.81673372 18.27224457 -3.7832793 18.52517889 -7 18 C -10.1671867 15.10822083 -11.78208006 13.186453 -12.5625 8.9375 C -11.87020639 5.32218892 -10.54408967 3.61891584 -8 1 C -5.14675563 -0.42662219 -3.16545451 -0.31033868 0 0 Z" stroke-linecap="round"/>
</g>
		<g transform="matrix(1.8182 0 0 1.8182 -191.818 180.9093)" id="79342">
<path style="stroke: none; stroke-width: 1; stroke-dasharray: none; stroke-linecap: butt; stroke-dashoffset: 0; stroke-linejoin: miter; stroke-miterlimit: 4; is-custom-font: none; font-file-url: none; fill: rgb(68,147,102); fill-rule: nonzero; opacity: 1;" transform=" translate(-9.5, -13)" d="M 0 0 C 3.3 0 6.6 0 10 0 C 9.67 0.66 9.34 1.32 9 2 C 8.84733388 3.73868744 8.75067404 5.48247501 8.68359375 7.2265625 C 8.64169922 8.2578125 8.59980469 9.2890625 8.55664062 10.3515625 C 8.49766602 11.97191406 8.49766602 11.97191406 8.4375 13.625 C 8.39431641 14.71296875 8.35113281 15.8009375 8.30664062 16.921875 C 8.2003547 19.6144517 8.09831943 22.30712253 8 25 C 9.45903258 24.69078116 10.91720722 24.37751201 12.375 24.0625 C 13.18710937 23.88847656 13.99921875 23.71445313 14.8359375 23.53515625 C 17.029463 23.07669307 17.029463 23.07669307 19 22 C 19 23.32 19 24.64 19 26 C 12.73 26 6.46 26 0 26 C 0.66 25.34 1.32 24.68 2 24 C 2.31051841 21.70609569 2.31051841 21.70609569 2.265625 19.0625 C 2.26820312 18.08539063 2.27078125 17.10828125 2.2734375 16.1015625 C 2.26570312 15.07804688 2.25796875 14.05453125 2.25 13 C 2.25773438 11.97648438 2.26546875 10.95296875 2.2734375 9.8984375 C 2.26957031 8.43277344 2.26957031 8.43277344 2.265625 6.9375 C 2.26336914 6.03902344 2.26111328 5.14054688 2.25878906 4.21484375 C 2.20808942 1.79457835 2.20808942 1.79457835 0 0 Z" stroke-linecap="round"/>
</g>
		<g transform="matrix(1.8182 0 0 1.8182 -40.909 180.9093)" id="874015">
<path style="stroke: none; stroke-width: 1; stroke-dasharray: none; stroke-linecap: butt; stroke-dashoffset: 0; stroke-linejoin: miter; stroke-miterlimit: 4; is-custom-font: none; font-file-url: none; fill: rgb(67,147,102); fill-rule: nonzero; opacity: 1;" transform=" translate(-4.5, -13)" d="M 0 0 C 2.31 0 4.62 0 7 0 C 7.02505615 0.71655762 7.0501123 1.43311523 7.07592773 2.17138672 C 7.19169751 5.40611514 7.31450969 8.64053841 7.4375 11.875 C 7.47681641 13.00292969 7.51613281 14.13085938 7.55664062 15.29296875 C 7.59853516 16.36933594 7.64042969 17.44570312 7.68359375 18.5546875 C 7.72025146 19.54968262 7.75690918 20.54467773 7.79467773 21.56982422 C 7.84959532 24.00779501 7.84959532 24.00779501 9 26 C 6.03 26 3.06 26 0 26 C 0.66 25.67 1.32 25.34 2 25 C 1.86155153 21.20802551 1.71299256 17.4165141 1.5625 13.625 C 1.52318359 12.54476562 1.48386719 11.46453125 1.44335938 10.3515625 C 1.40146484 9.3203125 1.35957031 8.2890625 1.31640625 7.2265625 C 1.27974854 6.27346191 1.24309082 5.32036133 1.20532227 4.33837891 C 1.14236535 1.97867651 1.14236535 1.97867651 0 0 Z" stroke-linecap="round"/>
</g>
		<g transform="matrix(1.8182 0 0 1.8182 78.807 188.2134)" id="165805">
<path style="stroke: none; stroke-width: 1; stroke-dasharray: none; stroke-linecap: butt; stroke-dashoffset: 0; stroke-linejoin: miter; stroke-miterlimit: 4; is-custom-font: none; font-file-url: none; fill: rgb(77,154,112); fill-rule: nonzero; opacity: 1;" transform=" translate(3.6563, -9.0173)" d="M 0 0 C 2.375 1.5 2.375 1.5 4 3 C 3.6875 4.9375 3.6875 4.9375 3 7 C 2.01 7.33 1.02 7.66 0 8 C -0.66 6.02 -1.32 4.04 -2 2 C -3.32 2.33 -4.64 2.66 -6 3 C -6.35606813 7.96551325 -6.35606813 7.96551325 -4.5 12.4375 C -4.005 12.953125 -3.51 13.46875 -3 14 C 1.12973628 13.43260132 1.12973628 13.43260132 5 12 C 4.05275873 14.36810318 3.34708866 15.75207953 1.25 17.25 C -1.72188924 18.24062975 -3.88504443 18.38936945 -7 18 C -10.27209157 15.34695278 -11.84452542 13.39927121 -12.3125 9.1875 C -11.92835642 5.2692355 -10.70743683 3.78706733 -8 1 C -5.19084526 -0.40457737 -3.11189466 -0.24895157 0 0 Z" stroke-linecap="round"/>
</g>
		<g transform="matrix(1.8182 0 0 1.8182 172.7274 188.182)" id="338937">
<path style="stroke: none; stroke-width: 1; stroke-dasharray: none; stroke-linecap: butt; stroke-dashoffset: 0; stroke-linejoin: miter; stroke-miterlimit: 4; is-custom-font: none; font-file-url: none; fill: rgb(86,159,120); fill-rule: nonzero; opacity: 1;" transform=" translate(-6, -9)" d="M 0 0 C 3.96 0 7.92 0 12 0 C 10.35433477 5.68502535 7.70967216 10.76681636 5 16 C 7.42429006 16.16683726 7.42429006 16.16683726 10 16 C 11.84315671 14.0995533 11.84315671 14.0995533 13 12 C 12.67 13.98 12.34 15.96 12 18 C 7.71 18 3.42 18 -1 18 C -0.10465713 13.52328567 1.00210099 10.67678319 3.0625 6.6875 C 3.61035156 5.61886719 4.15820312 4.55023438 4.72265625 3.44921875 C 5.35494141 2.23685547 5.35494141 2.23685547 6 1 C 2.34683329 2.24976756 1.21934164 2.67098753 -1 6 C -0.67 4.02 -0.34 2.04 0 0 Z" stroke-linecap="round"/>
</g>
		<g transform="matrix(1.8182 0 0 1.8182 140.9093 187.99)" id="800935">
<path style="stroke: none; stroke-width: 1; stroke-dasharray: none; stroke-linecap: butt; stroke-dashoffset: 0; stroke-linejoin: miter; stroke-miterlimit: 4; is-custom-font: none; font-file-url: none; fill: rgb(70,149,104); fill-rule: nonzero; opacity: 1;" transform=" translate(2.5, -8.8944)" d="M 0 0 C 2.16796875 1.109375 2.16796875 1.109375 4 3 C 4.390625 6.13671875 4.390625 6.13671875 4.25 9.6875 C 4.21390625 10.86699219 4.1778125 12.04648438 4.140625 13.26171875 C 4.07101563 14.61716797 4.07101563 14.61716797 4 16 C 4.66 16.33 5.32 16.66 6 17 C 3.625 17.625 3.625 17.625 1 18 C -1.85793316 15.14206684 -1.40799941 12.85334416 -1.625 8.875 C -1.73714844 6.95300781 -1.73714844 6.95300781 -1.8515625 4.9921875 C -1.90054688 4.00476563 -1.94953125 3.01734375 -2 2 C -2.99 2 -3.98 2 -5 2 C -5.66 3.32 -6.32 4.64 -7 6 C -8.32 5.34 -9.64 4.68 -11 4 C -7.3055927 0.52291078 -5.10370591 -0.76012641 0 0 Z" stroke-linecap="round"/>
</g>
		<g transform="matrix(1.8182 0 0 1.8182 195.4546 187.2729)" id="871860">
<path style="stroke: none; stroke-width: 1; stroke-dasharray: none; stroke-linecap: butt; stroke-dashoffset: 0; stroke-linejoin: miter; stroke-miterlimit: 4; is-custom-font: none; font-file-url: none; fill: rgb(76,153,111); fill-rule: nonzero; opacity: 1;" transform=" translate(3.5, -9.5)" d="M 0 0 C 0.33 6.27 0.66 12.54 1 19 C -1.97 19 -4.94 19 -8 19 C -7.34 18.34 -6.68 17.68 -6 17 C -5.67942129 13.71235985 -5.67942129 13.71235985 -5.75 10 C -5.74484375 8.741875 -5.7396875 7.48375 -5.734375 6.1875 C -5.66219545 2.90717639 -5.66219545 2.90717639 -8 1 C -2.25 0 -2.25 0 0 0 Z" stroke-linecap="round"/>
</g>
		<g transform="matrix(1.8182 0 0 1.8182 31.8818 187.2729)" id="493564">
<path style="stroke: none; stroke-width: 1; stroke-dasharray: none; stroke-linecap: butt; stroke-dashoffset: 0; stroke-linejoin: miter; stroke-miterlimit: 4; is-custom-font: none; font-file-url: none; fill: rgb(73,151,107); fill-rule: nonzero; opacity: 1;" transform=" translate(3.4651, -9.5)" d="M 0 0 C 1.00926479 4.15626368 1.10239579 8.04365094 1.0625 12.3125 C 1.05347656 13.56675781 1.04445312 14.82101563 1.03515625 16.11328125 C 1.02355469 17.06589844 1.01195312 18.01851562 1 19 C -1.97 19 -4.94 19 -8 19 C -7.34 18.34 -6.68 17.68 -6 17 C -5.69400937 14.43083343 -5.48912913 11.95241616 -5.375 9.375 C -5.33632812 8.66859375 -5.29765625 7.9621875 -5.2578125 7.234375 C -5.16352276 5.49001476 -5.08067109 3.74504309 -5 2 C -5.99 1.67 -6.98 1.34 -8 1 C -2.25 0 -2.25 0 0 0 Z" stroke-linecap="round"/>
</g>
		<g transform="matrix(1.8182 0 0 1.8182 104.5455 187.2729)" id="713247">
<path style="stroke: none; stroke-width: 1; stroke-dasharray: none; stroke-linecap: butt; stroke-dashoffset: 0; stroke-linejoin: miter; stroke-miterlimit: 4; is-custom-font: none; font-file-url: none; fill: rgb(68,148,103); fill-rule: nonzero; opacity: 1;" transform=" translate(2.5, -9.5)" d="M 0 0 C 0.06058594 1.20398438 0.12117187 2.40796875 0.18359375 3.6484375 C 0.26799732 5.22397077 0.35264541 6.79949096 0.4375 8.375 C 0.47681641 9.1690625 0.51613281 9.963125 0.55664062 10.78125 C 0.68893404 15.02601221 0.68893404 15.02601221 2 19 C -0.97 19 -3.94 19 -7 19 C -6.67 18.34 -6.34 17.68 -6 17 C -5.92818179 14.28239892 -5.90700494 11.59140612 -5.9375 8.875 C -5.94201172 8.12089844 -5.94652344 7.36679688 -5.95117188 6.58984375 C -5.96296501 4.72652873 -5.98090058 2.86325445 -6 1 C -1.125 0 -1.125 0 0 0 Z" stroke-linecap="round"/>
</g>
		<g transform="matrix(1.8182 0 0 1.8182 -160.909 187.2743)" id="196199">
<path style="stroke: none; stroke-width: 1; stroke-dasharray: none; stroke-linecap: butt; stroke-dashoffset: 0; stroke-linejoin: miter; stroke-miterlimit: 4; is-custom-font: none; font-file-url: none; fill: rgb(72,151,107); fill-rule: nonzero; opacity: 1;" transform=" translate(0.5, -9.5008)" d="M 0 0 C 0.02578125 1.13179687 0.0515625 2.26359375 0.078125 3.4296875 C 0.13439626 4.91149743 0.19174382 6.39326677 0.25 7.875 C 0.26417969 8.62136719 0.27835938 9.36773437 0.29296875 10.13671875 C 0.35986341 12.57138381 0.35986341 12.57138381 1 16 C 2.90628782 17.60337399 2.90628782 17.60337399 5 18 C -1.43406114 19.33537118 -1.43406114 19.33537118 -3.6875 18 C -5.67243752 14.9753333 -5.57275447 11.8237131 -5.6875 8.3125 C -5.72166016 7.61060547 -5.75582031 6.90871094 -5.79101562 6.18554688 C -5.87329947 4.45758613 -5.9383324 2.72881928 -6 1 C -3.92446352 0.4465236 -2.15634036 0 0 0 Z" stroke-linecap="round"/>
</g>
		<g transform="matrix(1.8182 0 0 1.8182 53.6365 187.9989)" id="958846">
<path style="stroke: none; stroke-width: 1; stroke-dasharray: none; stroke-linecap: butt; stroke-dashoffset: 0; stroke-linejoin: miter; stroke-miterlimit: 4; is-custom-font: none; font-file-url: none; fill: rgb(74,152,109); fill-rule: nonzero; opacity: 1;" transform=" translate(-4.5, -8.8993)" d="M 0 0 C 4.4335512 -0.35947712 4.4335512 -0.35947712 6.625 1.03125 C 8.70940492 4.01573886 8.5723707 7.16454357 8.6875 10.6875 C 8.73874023 11.7403418 8.73874023 11.7403418 8.79101562 12.81445312 C 8.87329947 14.54241387 8.9383324 16.27118072 9 18 C 6.03 18 3.06 18 0 18 C 0.66 17.34 1.32 16.68 2 16 C 2.3204767 12.97572298 2.3204767 12.97572298 2.25 9.5625 C 2.25773438 7.83193359 2.25773438 7.83193359 2.265625 6.06640625 C 2.23269053 2.82814326 2.23269053 2.82814326 0 0 Z" stroke-linecap="round"/>
</g>
		<g transform="matrix(1.8182 0 0 1.8182 6.3638 188.0247)" id="447240">
<path style="stroke: none; stroke-width: 1; stroke-dasharray: none; stroke-linecap: butt; stroke-dashoffset: 0; stroke-linejoin: miter; stroke-miterlimit: 4; is-custom-font: none; font-file-url: none; fill: rgb(67,147,102); fill-rule: nonzero; opacity: 1;" transform=" translate(3.5, -8.9135)" d="M 0 0 C 1.6796875 1.140625 1.6796875 1.140625 3 3 C 3.51171875 5.8125 3.51171875 5.8125 3.6875 9 C 3.78611328 10.5778125 3.78611328 10.5778125 3.88671875 12.1875 C 3.96470853 14.12379794 4 16.06213207 4 18 C 2.35 17.67 0.7 17.34 -1 17 C -1.33 11.72 -1.66 6.44 -2 1 C -3.32 1 -4.64 1 -6 1 C -6.33 2.65 -6.66 4.3 -7 6 C -8.32 5.67 -9.64 5.34 -11 5 C -8.5075559 -0.51898335 -5.93599766 -0.41656124 0 0 Z" stroke-linecap="round"/>
</g>
		<g transform="matrix(1.8182 0 0 1.8182 -107.2726 192.7274)" id="612537">
<path style="stroke: none; stroke-width: 1; stroke-dasharray: none; stroke-linecap: butt; stroke-dashoffset: 0; stroke-linejoin: miter; stroke-miterlimit: 4; is-custom-font: none; font-file-url: none; fill: rgb(76,153,110); fill-rule: nonzero; opacity: 1;" transform=" translate(-3, -6.5)" d="M 0 0 C 3.27742098 3.10026309 5.93104837 5.97098894 8 10 C 8 10.66 8 11.32 8 12 C 8.66 12.33 9.32 12.66 10 13 C 7.36 13 4.72 13 2 13 C 1.73445313 12.44570312 1.46890625 11.89140625 1.1953125 11.3203125 C 0.84210937 10.59585938 0.48890625 9.87140625 0.125 9.125 C -0.22304688 8.40570313 -0.57109375 7.68640625 -0.9296875 6.9453125 C -1.96557543 4.84864981 -1.96557543 4.84864981 -4 3 C -2.68 2.01 -1.36 1.02 0 0 Z" stroke-linecap="round"/>
</g>
		<g transform="matrix(1.8182 0 0 1.8182 -28.9046 170.0001)" id="589157">
<path style="stroke: none; stroke-width: 1; stroke-dasharray: none; stroke-linecap: butt; stroke-dashoffset: 0; stroke-linejoin: miter; stroke-miterlimit: 4; is-custom-font: none; font-file-url: none; fill: rgb(252,253,253); fill-rule: nonzero; opacity: 1;" transform=" translate(-3.1024, -6)" d="M 0 0 C 5 1 5 1 6 2 C 6.27314815 7.73611111 6.27314815 7.73611111 6 10 C 5.34 10.66 4.68 11.32 4 12 C 2.68 12 1.36 12 0 12 C 0 8.04 0 4.08 0 0 Z" stroke-linecap="round"/>
</g>
		<g transform="matrix(1.8182 0 0 1.8182 131.8183 195.6401)" id="541162">
<path style="stroke: none; stroke-width: 1; stroke-dasharray: none; stroke-linecap: butt; stroke-dashoffset: 0; stroke-linejoin: miter; stroke-miterlimit: 4; is-custom-font: none; font-file-url: none; fill: rgb(89,161,123); fill-rule: nonzero; opacity: 1;" transform=" translate(4.5, -4.102)" d="M 0 0 C -0.99 0.66 -1.98 1.32 -3 2 C -3 3.32 -3 4.64 -3 6 C -2.01 6.66 -1.02 7.32 0 8 C -3.375 8.625 -3.375 8.625 -7 9 C -7.66 8.34 -8.32 7.68 -9 7 C -8.9375 4.5625 -8.9375 4.5625 -8 2 C -3.84375 -1.28125 -3.84375 -1.28125 0 0 Z" stroke-linecap="round"/>
</g>
		<g transform="matrix(1.8182 0 0 1.8182 138.1819 188.182)" id="953046">
<path style="stroke: none; stroke-width: 1; stroke-dasharray: none; stroke-linecap: butt; stroke-dashoffset: 0; stroke-linejoin: miter; stroke-miterlimit: 4; is-custom-font: none; font-file-url: none; fill: rgb(228,241,236); fill-rule: nonzero; opacity: 1;" transform=" translate(2, -7)" d="M 0 0 C 0.33 0 0.66 0 1 0 C 1 4.62 1 9.24 1 14 C -0.65 14 -2.3 14 -4 14 C -4.33 12.35 -4.66 10.7 -5 9 C -4.0409375 8.7215625 -4.0409375 8.7215625 -3.0625 8.4375 C -0.57873787 7.05753944 -0.57873787 7.05753944 -0.25 3.375 C -0.1675 2.26125 -0.085 1.1475 0 0 Z" stroke-linecap="round"/>
</g>
		<g transform="matrix(1.8182 0 0 1.8182 4.4887 193.6364)" id="664499">
<path style="stroke: none; stroke-width: 1; stroke-dasharray: none; stroke-linecap: butt; stroke-dashoffset: 0; stroke-linejoin: miter; stroke-miterlimit: 4; is-custom-font: none; font-file-url: none; fill: rgb(249,252,251); fill-rule: nonzero; opacity: 1;" transform=" translate(2.5313, -4)" d="M 0 0 C 0 2.31 0 4.62 0 7 C -1.9375 7.5625 -1.9375 7.5625 -4 8 C -5 7 -5 7 -5.0625 4.4375 C -5.041875 3.633125 -5.02125 2.82875 -5 2 C -1.125 0 -1.125 0 0 0 Z" stroke-linecap="round"/>
</g>
		<g transform="matrix(1.8182 0 0 1.8182 83.6365 178.9162)" id="344754">
<path style="stroke: none; stroke-width: 1; stroke-dasharray: none; stroke-linecap: butt; stroke-dashoffset: 0; stroke-linejoin: miter; stroke-miterlimit: 4; is-custom-font: none; font-file-url: none; fill: rgb(87,161,122); fill-rule: nonzero; opacity: 1;" transform=" translate(-5, -3.9039)" d="M 0 0 C 5.41538462 -0.36923077 5.41538462 -0.36923077 8.375 1.5 C 8.91125 1.995 9.4475 2.49 10 3 C 9.6875 4.9375 9.6875 4.9375 9 7 C 8.01 7.33 7.02 7.66 6 8 C 5.34 6.02 4.68 4.04 4 2 C 2.68 2 1.36 2 0 2 C 0 1.34 0 0.68 0 0 Z" stroke-linecap="round"/>
</g>
		<g transform="matrix(1.8182 0 0 1.8182 -80.909 178.1819)" id="569324">
<path style="stroke: none; stroke-width: 1; stroke-dasharray: none; stroke-linecap: butt; stroke-dashoffset: 0; stroke-linejoin: miter; stroke-miterlimit: 4; is-custom-font: none; font-file-url: none; fill: rgb(245,250,248); fill-rule: nonzero; opacity: 1;" transform=" translate(-1.5, -2.5)" d="M 0 0 C 1.32 0 2.64 0 4 0 C 4.33 1.65 4.66 3.3 5 5 C 2.69 5 0.38 5 -2 5 C -1.125 1.125 -1.125 1.125 0 0 Z" stroke-linecap="round"/>
</g>
		<g transform="matrix(1.8182 0 0 1.8182 196.3637 160.0001)" id="263578">
<path style="stroke: none; stroke-width: 1; stroke-dasharray: none; stroke-linecap: butt; stroke-dashoffset: 0; stroke-linejoin: miter; stroke-miterlimit: 4; is-custom-font: none; font-file-url: none; fill: rgb(85,160,120); fill-rule: nonzero; opacity: 1;" transform=" translate(-2, -2.5)" d="M 0 0 C 1.67542976 0.28604898 3.34385343 0.61781233 5 1 C 4.67 2.32 4.34 3.64 4 5 C 2.68 5 1.36 5 0 5 C -0.5625 3.0625 -0.5625 3.0625 -1 1 C -0.67 0.67 -0.34 0.34 0 0 Z" stroke-linecap="round"/>
</g>
		<g transform="matrix(1.8182 0 0 1.8182 2.7274 177.2149)" id="815754">
<path style="stroke: none; stroke-width: 1; stroke-dasharray: none; stroke-linecap: butt; stroke-dashoffset: 0; stroke-linejoin: miter; stroke-miterlimit: 4; is-custom-font: none; font-file-url: none; fill: rgb(96,167,131); fill-rule: nonzero; opacity: 1;" transform=" translate(5.5, -2.9682)" d="M 0 0 C 0 0.33 0 0.66 0 1 C -1.98 1 -3.96 1 -6 1 C -6.33 2.65 -6.66 4.3 -7 6 C -8.32 5.67 -9.64 5.34 -11 5 C -8.45499142 -0.63537615 -5.97208347 -0.11059414 0 0 Z" stroke-linecap="round"/>
</g>
		<g transform="matrix(1.8182 0 0 1.8182 135.4547 177.1688)" id="697679">
<path style="stroke: none; stroke-width: 1; stroke-dasharray: none; stroke-linecap: butt; stroke-dashoffset: 0; stroke-linejoin: miter; stroke-miterlimit: 4; is-custom-font: none; font-file-url: none; fill: rgb(92,164,127); fill-rule: nonzero; opacity: 1;" transform=" translate(5.5, -2.9428)" d="M 0 0 C -0.66 0.66 -1.32 1.32 -2 2 C -2.99 2 -3.98 2 -5 2 C -5.66 3.32 -6.32 4.64 -7 6 C -8.32 5.34 -9.64 4.68 -11 4 C -7.26280719 0.48264206 -5.13496308 -0.47767098 0 0 Z" stroke-linecap="round"/>
</g>
		<g transform="matrix(1.8182 0 0 1.8182 -104.5454 178.1819)" id="432667">
<path style="stroke: none; stroke-width: 1; stroke-dasharray: none; stroke-linecap: butt; stroke-dashoffset: 0; stroke-linejoin: miter; stroke-miterlimit: 4; is-custom-font: none; font-file-url: none; fill: rgb(170,209,190); fill-rule: nonzero; opacity: 1;" transform=" translate(-1.5, -3.5)" d="M 0 0 C 1.65 0 3.3 0 5 0 C 2.525 3.465 2.525 3.465 0 7 C -0.66 6.67 -1.32 6.34 -2 6 C -1.34 4.02 -0.68 2.04 0 0 Z" stroke-linecap="round"/>
</g>
		<g transform="matrix(1.8182 0 0 1.8182 -71.8181 178.1819)" id="603678">
<path style="stroke: none; stroke-width: 1; stroke-dasharray: none; stroke-linecap: butt; stroke-dashoffset: 0; stroke-linejoin: miter; stroke-miterlimit: 4; is-custom-font: none; font-file-url: none; fill: rgb(70,149,105); fill-rule: nonzero; opacity: 1;" transform=" translate(-2.5, -2.5)" d="M 0 0 C 1.32 0.33 2.64 0.66 4 1 C 4.33 2.32 4.66 3.64 5 5 C 3.68 5 2.36 5 1 5 C 0.67 3.35 0.34 1.7 0 0 Z" stroke-linecap="round"/>
</g>
		<g transform="matrix(1.8182 0 0 1.8182 117.2728 175.3267)" id="669520">
<path style="stroke: none; stroke-width: 1; stroke-dasharray: none; stroke-linecap: butt; stroke-dashoffset: 0; stroke-linejoin: miter; stroke-miterlimit: 4; is-custom-font: none; font-file-url: none; fill: rgb(81,157,117); fill-rule: nonzero; opacity: 1;" transform=" translate(-1.5, -1.9297)" d="M 0 0 C 2.625 -0.1875 2.625 -0.1875 5 0 C 4.67 1.32 4.34 2.64 4 4 C 1.03 3.505 1.03 3.505 -2 3 C -1.34 2.01 -0.68 1.02 0 0 Z" stroke-linecap="round"/>
</g>
		<g transform="matrix(1.8182 0 0 1.8182 -183.6363 200.9091)" id="966504">
<path style="stroke: none; stroke-width: 1; stroke-dasharray: none; stroke-linecap: butt; stroke-dashoffset: 0; stroke-linejoin: miter; stroke-miterlimit: 4; is-custom-font: none; font-file-url: none; fill: rgb(92,164,127); fill-rule: nonzero; opacity: 1;" transform=" translate(4, -2)" d="M 0 0 C 0.33 1.32 0.66 2.64 1 4 C -2.3 4 -5.6 4 -9 4 C -9 3.67 -9 3.34 -9 3 C -8.43410156 2.86722656 -7.86820313 2.73445312 -7.28515625 2.59765625 C -6.18494141 2.33275391 -6.18494141 2.33275391 -5.0625 2.0625 C -4.33160156 1.88847656 -3.60070312 1.71445313 -2.84765625 1.53515625 C -1.00030102 1.16112431 -1.00030102 1.16112431 0 0 Z" stroke-linecap="round"/>
</g>
</g>
</g>
</svg>